<svg version="1.2" xmlns="http://www.w3.org/2000/svg" viewBox="0 0 1254 1254" width="1254" height="1254">
	<style>
		.s0 { fill: #fbfbfb } 
		.s1 { fill: #010100 } 
		.s2 { fill: #747374 } 
		.s3 { fill: #f35993 } 
	</style>
	<g id="Background">
		<path id="Path 0" class="s0" d="m0 627v627h1254v-1254h-1254z"/>
		<path id="Path 1" class="s1" d="m190.5 38.41c-2.75 0.67-7.03 2.13-9.5 3.23-2.47 1.09-7.2 3.81-10.5 6.03-3.3 2.22-8.43 6.69-11.4 9.94-2.97 3.24-7.62 9.04-10.33 12.89-2.71 3.85-7.32 11.28-10.25 16.5-2.93 5.22-7.69 15.13-10.57 22-2.88 6.88-7.43 19.14-10.1 27.25-2.67 8.11-6.63 21.84-8.8 30.5-2.18 8.66-4.91 20.03-6.08 25.25-1.16 5.22-3.17 14.9-4.47 21.5-1.29 6.6-3.49 20.1-4.9 30-1.4 9.9-3.22 25.65-4.04 35-0.83 9.35-1.79 26.9-2.15 39-0.36 12.43-0.14 33.52 0.51 48.5 0.64 14.57 1.81 34.82 2.62 45 0.81 10.18 2.2 25.48 3.09 34l1.62 15.5c-10.96 22.48-16.83 35.75-20.12 44-3.29 8.25-8.28 21.75-11.09 30-2.81 8.25-6.65 20.17-8.54 26.5-1.88 6.33-5.66 20.27-8.39 31-2.72 10.73-6.53 27.38-8.46 37-1.93 9.63-4.65 25.6-6.03 35.5-1.39 9.9-2.97 22.73-3.51 28.5-0.55 5.77-1.32 14.33-1.71 19-0.65 7.83-0.94 8.7-3.72 11-1.66 1.38-3.61 3.96-4.35 5.75-0.73 1.79-1.33 5.27-1.33 7.75 0 2.48 0.5 5.51 1.12 6.75 0.62 1.24 2.35 3.6 3.85 5.25l2.74 3c1.76 39.52 3.17 57.98 4.28 66.5 1.1 8.52 2.92 20.67 4.05 27 1.13 6.33 3.56 17.8 5.41 25.5 1.84 7.7 5.7 21.2 8.56 30 2.87 8.8 7.9 22.75 11.19 31 3.29 8.25 9.76 22.42 14.37 31.5 4.61 9.08 11.66 21.69 15.66 28.03 4 6.34 10.16 15.57 13.68 20.5 3.53 4.93 9.87 13.25 14.09 18.47 4.22 5.22 12.4 14.67 18.17 21 5.77 6.33 15.8 16.22 22.28 22 6.48 5.78 15.45 13.44 19.92 17.02 4.47 3.59 13.75 10.4 20.63 15.13 6.87 4.73 15.65 10.52 19.5 12.88 3.85 2.35 12.96 7.58 20.25 11.62 7.29 4.04 20.11 10.53 28.5 14.43 8.39 3.89 21.32 9.47 28.75 12.39 7.43 2.93 19.57 7.42 27 9.99 7.43 2.57 20.02 6.48 28 8.7 7.98 2.21 19.68 5.3 26 6.86 6.32 1.56 19.6 4.47 29.5 6.47 9.9 1.99 27.9 5.16 40 7.04 12.1 1.87 30.55 4.31 41 5.43 10.45 1.11 28.23 2.69 39.5 3.51 11.27 0.82 35.8 2 54.5 2.64 20.36 0.68 49.44 0.89 72.5 0.5 21.17-0.36 47.27-1.1 58-1.65 10.73-0.55 27.38-1.68 37-2.51 9.63-0.82 26.27-2.63 37-4.02 10.73-1.38 26.02-3.6 34-4.93 7.98-1.33 20.35-3.6 27.5-5.04 7.15-1.44 19.52-4.19 27.5-6.11 7.98-1.93 20.13-5.07 27-7 6.87-1.93 18.8-5.55 26.5-8.05 7.7-2.51 21.2-7.37 30-10.82 8.8-3.44 22.08-9.1 29.5-12.57 7.42-3.47 20.02-9.87 28-14.24 7.98-4.36 21.47-12.57 30-18.24 8.53-5.67 20.22-14.07 26-18.68 5.78-4.6 15.88-13.3 22.45-19.31 6.57-6.02 16.47-16.11 22-22.44 5.53-6.33 12.79-14.87 16.14-19 3.35-4.12 10.03-13.12 14.85-20 4.83-6.87 12.4-18.58 16.84-26 4.43-7.42 11.09-19.8 14.8-27.5 3.7-7.7 9.07-19.85 11.92-27 2.85-7.15 7.35-19.52 10-27.5 2.64-7.98 6.63-21.7 8.86-30.5 2.22-8.8 4.96-20.5 6.08-26 1.12-5.5 2.94-16.19 4.05-23.75 1.11-7.56 2.68-22.08 3.51-32.25 0.83-10.17 1.49-23.56 1.48-29.75l-0.02-11.25c4.68-3.49 6.93-6.41 8.02-8.75 1.09-2.34 1.98-5.6 1.98-7.25 0.01-1.65-0.85-4.8-1.9-7-1.05-2.2-3.52-5.24-5.48-6.75l-3.58-2.75c-0.01-12.79-0.68-23.92-1.51-33-0.82-9.08-2.43-23.02-3.58-31-1.14-7.98-2.91-19-3.92-24.5-1.01-5.5-3.71-18.33-6.02-28.5-2.3-10.17-5.9-24.58-8-32-2.1-7.42-5.95-20.02-8.55-28-2.59-7.98-7.3-21.02-10.46-29-3.16-7.98-7.64-18.77-9.95-24-2.31-5.23-6.34-13.77-8.96-19l-4.77-9.5c2.79-29.45 4.39-48.35 5.37-61 1.31-17.05 1.78-34.5 1.81-67.5 0.03-35.82-0.31-47.91-1.75-62-0.99-9.62-2.92-25.37-4.3-35-1.38-9.62-4.33-26.5-6.56-37.5-2.23-11-6.22-27.87-8.86-37.5-2.64-9.62-6.6-22.68-8.78-29-2.19-6.33-5.42-15.1-7.18-19.5-1.76-4.4-5.61-12.95-8.55-19-2.94-6.05-8.13-15.28-11.53-20.5-3.47-5.33-9.74-13.03-14.31-17.56-5.57-5.51-10.19-9.06-14.64-11.23-3.58-1.74-9.2-3.85-12.5-4.69-3.3-0.84-8.59-1.53-11.75-1.53-3.16 0.01-9.24 0.72-13.5 1.6-4.26 0.87-12.92 3.63-19.25 6.12-6.33 2.5-15.33 6.45-20 8.79-4.67 2.34-12.55 6.64-17.5 9.55-4.95 2.9-14.17 8.75-20.5 12.98-6.33 4.23-16.9 11.88-23.5 17-6.6 5.12-16.5 13.16-22 17.87-5.5 4.71-16.91 15.32-25.36 23.58-8.44 8.26-19.77 19.97-25.17 26.02-5.4 6.05-13.94 15.95-18.99 22-5.04 6.05-14.38 17.97-20.76 26.5-6.37 8.53-11.84 15.84-12.15 16.25-0.31 0.41-4.4-0.41-9.07-1.81-4.67-1.4-15.7-4.3-24.5-6.44-8.8-2.14-22.08-5.01-29.5-6.38-7.42-1.37-21.6-3.63-31.5-5.03-9.9-1.39-26.77-3.3-37.5-4.23-13.5-1.18-30.26-1.71-54.5-1.74-20.37-0.03-40.64 0.47-48.5 1.19-7.42 0.69-19.35 1.92-26.5 2.73-7.15 0.82-20.42 2.63-29.5 4.02-9.08 1.39-25.27 4.31-36 6.48-10.73 2.18-25.8 5.72-33.5 7.88-7.7 2.16-14.03 3.84-14.07 3.75-0.05-0.09-5.86-7.82-12.92-17.17-7.06-9.35-18.5-23.75-25.42-32-6.93-8.25-20.69-23.26-30.59-33.35-9.9-10.09-23.18-23-29.5-28.68-6.32-5.68-17.35-14.91-24.5-20.51-7.15-5.59-19.3-14.33-27-19.41-7.7-5.07-18.16-11.55-23.25-14.39-5.09-2.84-14.09-7.34-20-10.01-5.91-2.67-14.12-6.02-18.25-7.45-4.12-1.43-10.76-3.3-14.75-4.15-3.99-0.85-9.84-1.51-13-1.46-3.16 0.04-8 0.64-10.75 1.32z"/>
		<path id="Path 2" class="s2" d="m366 137.5c9.63 9.63 17.73 17.51 18 17.51 0.27 0-7.25-7.88-16.73-17.51-9.47-9.62-17.57-17.5-18-17.5-0.42-0.01 7.11 7.87 16.73 17.5zm523.49-1.25l-13.99 14.25c22.09-21.7 28.51-28.11 28.5-28.25 0-0.14-0.12-0.25-0.26-0.25-0.15 0-6.56 6.41-14.25 14.25zm-802.12 167.25c0 5.5 0.17 7.52 0.37 4.5 0.2-3.02 0.2-7.52-0.01-10-0.2-2.48-0.37 0-0.36 5.5zm1078.07 26.5c0 16.23 0.14 22.75 0.31 14.5 0.17-8.25 0.17-21.52 0-29.5-0.17-7.98-0.31-1.23-0.31 15zm-1078.06 35c0 6.32 0.16 8.8 0.36 5.5 0.2-3.3 0.2-8.48 0-11.5-0.2-3.02-0.36-0.32-0.36 6zm0.96 22c0 4.13 0.17 5.93 0.39 4 0.21-1.93 0.21-5.3 0-7.5-0.22-2.2-0.39-0.63-0.39 3.5zm-22.37 562.25c0.02 0.41 2.73 6.15 6.03 12.75 3.3 6.6 6.22 12 6.5 12 0.28 0-2.25-5.51-5.61-12.25-3.37-6.74-6.3-12.48-6.53-12.75-0.23-0.27-0.4-0.16-0.39 0.25zm485.53 257.47c1.65 0.22 4.8 0.22 7 0.01 2.2-0.22 0.85-0.4-3-0.4-3.85-0.01-5.65 0.17-4 0.39zm29.5 1.02c2.48 0.2 6.75 0.2 9.5 0 2.75-0.21 0.73-0.38-4.5-0.38-5.22 0-7.47 0.17-5 0.38zm89 0c3.58 0.2 8.98 0.19 12 0 3.03-0.2 0.1-0.36-6.5-0.36-6.6 0-9.08 0.17-5.5 0.36z"/>
		<path id="Path 3" class="s0" d="m194.5 77.36c-2.75 1.36-7.25 4.93-10 7.93-2.75 3-7.35 9.22-10.23 13.83-2.88 4.61-7.46 13.33-10.17 19.38-2.72 6.05-7.43 18.43-10.46 27.5-3.03 9.07-7.09 22.8-9.03 30.5-1.93 7.7-4.23 17.15-5.1 21-0.88 3.85-2.23 10.15-3 14-0.78 3.85-2.32 11.95-3.43 18-1.11 6.05-2.91 17.75-3.99 26-1.09 8.25-2.56 21.75-3.28 30-0.83 9.45-1.27 29.24-1.21 53.5 0.07 25.23 0.67 46.08 1.75 60.5 0.9 12.1 2.63 30.1 3.84 40 1.21 9.9 2.2 20.93 2.2 24.5 0 6.2-0.42 7.33-9.19 24.75-5.06 10.04-11.9 25-15.2 33.25-3.3 8.25-8.68 22.99-11.95 32.75-3.28 9.76-7.76 24.05-9.96 31.75-2.2 7.7-5.62 20.98-7.6 29.5-1.98 8.52-4.49 20-5.59 25.5-1.09 5.5-3.06 16.98-4.38 25.5-1.31 8.52-3.11 23.38-4 33-0.89 9.63-1.43 17.95-1.2 18.5 0.22 0.55 4.18 1.36 8.79 1.8 4.62 0.43 13.79 1.47 20.39 2.31 6.6 0.84 17.17 2.42 23.5 3.52 6.33 1.1 17.13 3.28 24 4.84 6.87 1.56 13.74 3.11 15.25 3.43 2.18 0.48 2.75 0.24 2.73-1.15 0-0.96 1.4-7.37 3.11-14.25 1.72-6.87 4.93-17 7.12-22.5 2.2-5.5 5.35-12.7 7.01-16 1.67-3.3 4.86-9.15 7.11-13 2.24-3.85 7.22-11.27 11.07-16.5 3.84-5.23 10.84-13.51 15.54-18.4 4.71-4.9 12.61-12.29 17.56-16.43 4.95-4.14 13.05-10.2 18-13.46 4.95-3.26 14.85-8.79 22-12.28 7.15-3.49 18.4-8.14 25-10.34 6.6-2.2 17.85-5.23 25-6.75 12.06-2.55 14.74-2.75 37-2.79 15.72-0.03 26.59 0.41 31.5 1.28 4.13 0.73 12.9 2.67 19.5 4.31 6.6 1.64 16.39 4.76 21.75 6.92 5.36 2.17 13.24 5.7 17.5 7.85 4.26 2.15 11.57 6.32 16.25 9.27 4.68 2.94 11.88 8.04 16 11.32 4.13 3.29 10.88 9.19 15 13.13 4.13 3.94 10.77 11.14 14.76 16.01 4 4.88 10 12.91 13.33 17.86 3.34 4.95 8.71 14.4 11.94 21 3.23 6.6 7.4 16.5 9.28 22 1.88 5.5 4.15 13.49 5.05 17.75l1.64 7.75c11.24-4.71 18.55-7.38 23.5-8.96 4.95-1.59 13.73-3.93 19.5-5.2 9.46-2.08 12.98-2.3 35.5-2.26 23.47 0.04 25.73 0.21 37 2.75 6.6 1.49 14.92 3.66 18.5 4.83 3.58 1.16 9.76 3.4 13.75 4.98 3.99 1.57 7.7 2.86 8.25 2.86 0.55 0 1.51-2.59 2.13-5.75 0.61-3.16 2.68-10.48 4.59-16.25 1.91-5.77 5.81-15.45 8.67-21.5 2.86-6.05 7.82-15.05 11.03-20 3.21-4.95 8.81-12.82 12.46-17.49 3.64-4.67 10.67-12.55 15.63-17.5 4.95-4.96 14.17-12.87 20.5-17.59 6.32-4.72 14.19-10.2 17.49-12.19 3.3-1.98 11.4-6.17 18-9.3 6.6-3.14 16.73-7.24 22.5-9.12 5.77-1.88 16.13-4.61 23-6.08 11.68-2.48 14.21-2.66 38.5-2.69 22.85-0.02 27.42 0.25 37.75 2.22 6.46 1.23 17.71 4.21 25 6.61 7.29 2.4 17.52 6.37 22.75 8.82 5.23 2.46 13.1 6.64 17.5 9.31 4.4 2.67 12.27 8.01 17.5 11.87 5.22 3.86 15.35 12.89 22.5 20.07 7.15 7.19 15.56 16.67 18.68 21.06 3.13 4.4 7.86 11.6 10.52 16 2.66 4.4 7.01 12.95 9.67 19 2.65 6.05 6.38 16.4 8.27 23 1.9 6.6 3.99 15.3 4.66 19.34 1.15 7.06 1.3 7.33 3.7 6.87 1.38-0.26 9.92-2.09 19-4.07 9.08-1.98 23.7-4.75 32.5-6.16 8.8-1.41 21.52-3.11 28.26-3.77l12.25-1.21c-0.02-5.42-0.49-12.4-1.04-19-0.56-6.6-1.93-19.2-3.05-28-1.12-8.8-2.88-20.95-3.91-27-1.04-6.05-3.53-18.42-5.55-27.5-2.01-9.08-5.84-24.15-8.51-33.5-2.67-9.35-6.92-23.3-9.45-31-2.54-7.7-7.83-22.1-11.77-32-3.93-9.9-10.97-25.43-15.63-34.5-8.33-16.19-8.49-16.63-8.42-23.5 0.03-3.85 1-15.77 2.15-26.5 1.15-10.73 2.86-30.07 3.81-43 1.16-15.8 1.74-35.79 1.77-61 0.04-22.58-0.45-43.27-1.22-52-0.7-7.98-1.94-19.9-2.76-26.5-0.82-6.6-2.63-18.75-4.02-27-1.4-8.25-4.32-22.88-6.48-32.5-2.17-9.63-5.79-24.03-8.05-32-2.25-7.97-5.9-19.68-8.1-26-2.2-6.32-6.78-17.35-10.19-24.5-3.41-7.15-8.04-15.7-10.28-19-2.25-3.3-5.82-7.75-7.95-9.88-2.12-2.14-6.11-4.95-8.86-6.24-2.75-1.3-6.58-2.36-8.5-2.36-1.92 0.01-8.22 1.63-14 3.61-5.78 1.98-15.23 5.98-21 8.88-5.77 2.9-14.1 7.41-18.5 10.02-4.4 2.61-12.73 7.9-18.5 11.75-5.77 3.86-15.45 10.85-21.5 15.55-6.05 4.69-14.38 11.48-18.5 15.08-4.13 3.6-14.19 13.08-22.37 21.07-8.17 7.98-20.5 20.82-27.4 28.52-6.89 7.7-17.18 19.85-22.86 27-5.68 7.15-15.63 20.37-22.1 29.39-6.47 9.01-12.89 17.24-14.27 18.29-1.37 1.05-4.3 2.16-6.5 2.48-3.05 0.43-6.97-0.39-16.5-3.46-6.88-2.22-19.25-5.86-27.5-8.09-8.25-2.23-21.98-5.45-30.5-7.16-8.52-1.7-23.15-4.17-32.5-5.49-9.35-1.31-25.33-3.16-35.5-4.1-13.21-1.23-28.51-1.73-53.5-1.75-26.29-0.02-39.36 0.41-52.5 1.74-9.63 0.96-25.6 2.88-35.5 4.26-9.9 1.38-24.98 3.85-33.5 5.5-8.52 1.65-23.15 4.96-32.5 7.37-9.35 2.41-22.06 5.99-28.25 7.95-6.19 1.96-12.6 3.57-14.25 3.57-1.65 0-4.46-0.59-6.25-1.32-2.37-0.96-5.67-4.68-12.18-13.75-4.91-6.84-12.62-17.38-17.14-23.43-4.51-6.05-14.18-18.2-21.5-27-7.31-8.8-22.55-25.25-33.86-36.56-11.32-11.3-25.07-24.29-30.57-28.85-5.5-4.56-14.95-12.01-21-16.55-6.05-4.53-16.18-11.65-22.5-15.82-6.32-4.16-17.13-10.51-24-14.11-6.88-3.59-17-8.09-22.5-9.99-5.5-1.91-12.47-3.75-15.5-4.1-4.64-0.54-6.28-0.25-10.5 1.84zm144.5 527.31c-1.93 0.2-7.77 1.06-13 1.92-5.23 0.86-14.68 3.14-21 5.06-6.32 1.91-16.45 5.87-22.5 8.79-6.05 2.92-15.73 8.47-21.5 12.32-5.77 3.86-14.73 11-19.89 15.88-5.16 4.87-12.1 12.24-15.41 16.36-3.31 4.13-7.97 10.54-10.36 14.25-2.39 3.71-6.53 11.14-9.22 16.5-2.68 5.36-6.47 14.7-8.42 20.75-1.95 6.05-4.34 15.28-5.31 20.5-1.21 6.58-1.74 14.42-1.73 25.5 0.02 10.05 0.63 19.53 1.65 25.5 0.89 5.23 3.01 14.23 4.71 20 1.7 5.78 5.57 15.67 8.6 22 3.03 6.33 8.35 15.78 11.83 21 3.48 5.23 9.66 13.33 13.73 18 4.08 4.67 11.44 11.84 16.37 15.92 4.92 4.08 12.32 9.63 16.45 12.34 4.13 2.71 12.45 7.34 18.5 10.29 6.05 2.95 14.6 6.56 19 8.02 4.4 1.46 12.95 3.74 19 5.07 7.81 1.72 15.64 2.59 27 3.02 12.41 0.46 18.58 0.21 27.5-1.11 6.32-0.94 16.68-3.28 23-5.19 6.32-1.92 16.23-5.74 22-8.49 5.77-2.75 13.2-6.63 16.5-8.63 3.3-1.99 9.26-6.01 13.25-8.93 3.99-2.92 10.69-8.57 14.89-12.56 4.19-3.99 10.21-10.4 13.35-14.25 3.15-3.85 8.08-10.6 10.96-15 2.88-4.4 7.18-12.05 9.56-17 2.38-4.95 5.52-12.15 6.97-16 1.46-3.85 3.97-12.4 5.59-19 1.71-7 3.37-17.42 3.97-25 0.7-8.73 0.72-16.45 0.06-23.5-0.55-5.77-1.73-14.1-2.64-18.5-0.9-4.4-3.18-12.5-5.06-18-1.87-5.5-5.88-14.95-8.9-21-3.02-6.05-8.68-15.27-12.57-20.5-3.9-5.22-10.76-13.25-15.26-17.83-4.49-4.58-12.22-11.36-17.17-15.07-4.95-3.71-11.7-8.35-15-10.31-3.3-1.96-8.93-5.03-12.5-6.82-3.57-1.78-10.55-4.8-15.5-6.7-4.95-1.9-12.82-4.36-17.5-5.45-4.68-1.1-13.23-2.62-19-3.39-5.77-0.77-15.23-1.33-21-1.25-5.77 0.08-12.07 0.3-14 0.49zm540.5 0.34c-3.85 0.49-11.5 1.86-17 3.04-5.5 1.19-14.95 3.93-21 6.09-6.05 2.16-15.27 6.22-20.5 9.02-5.23 2.8-12.2 6.91-15.5 9.13-3.3 2.22-8.25 5.84-11 8.05-2.75 2.21-7.85 6.74-11.34 10.09-3.49 3.34-8.94 9.22-12.11 13.07-3.17 3.85-7.98 10.38-10.68 14.5-2.7 4.13-7.03 11.78-9.62 17-2.59 5.23-6.03 13.33-7.64 18-1.61 4.67-3.98 13.23-5.27 19-2.02 9.05-2.33 13.12-2.29 29.5 0.03 15.45 0.45 20.96 2.21 29.5 1.19 5.78 3.8 15.23 5.81 21 2 5.78 5.9 15 8.66 20.5 2.76 5.5 7.76 14.05 11.1 19 3.76 5.56 11.26 14.19 19.63 22.57 9.94 9.97 16.46 15.52 24.54 20.87 6.05 4.02 15.95 9.69 22 12.61 6.05 2.92 15.27 6.7 20.5 8.41 5.23 1.7 14 4.08 19.5 5.28 8.36 1.82 13.2 2.17 29.5 2.17 16.47 0 21.13-0.35 30-2.25 5.77-1.25 15.23-3.87 21-5.83 5.77-1.96 14.55-5.59 19.5-8.07 4.95-2.47 12.83-6.98 17.5-10.02 4.67-3.04 12.33-8.79 17-12.77 4.67-3.99 11.59-10.79 15.38-15.11 3.78-4.32 10.01-12.58 13.84-18.36 3.84-5.77 8.79-14.33 11.01-19 2.22-4.67 5.76-13.67 7.87-20 2.11-6.33 4.75-16.79 5.87-23.25 1.46-8.45 2.03-16.18 2.03-27.5-0.01-8.66-0.63-19.58-1.38-24.25-0.76-4.67-2.61-13-4.11-18.5-1.5-5.5-4.38-13.83-6.41-18.5-2.03-4.67-5.53-11.65-7.78-15.5-2.26-3.85-6.91-10.83-10.35-15.5-3.43-4.67-10.35-12.57-15.36-17.54-5.01-4.97-13.16-11.91-18.11-15.42-4.95-3.5-13.27-8.75-18.5-11.66-5.23-2.91-12.88-6.63-17-8.27-4.13-1.64-11.55-4.15-16.5-5.58-4.95-1.43-13.05-3.29-18-4.12-4.95-0.83-15.98-1.68-24.5-1.9-8.52-0.21-18.65 0.01-22.5 0.5zm-277.5 141.58c-5.23 0.83-14 2.83-19.5 4.43-5.5 1.61-13.83 4.52-18.5 6.48-4.67 1.96-9.85 4.36-11.5 5.34-2.94 1.73-3.02 1.99-3.75 12.21-0.41 5.75-1.65 15.51-2.75 21.7-1.1 6.19-3.63 16.31-5.63 22.5-1.99 6.19-5.62 15.75-8.07 21.25-2.44 5.5-6.97 14.28-10.07 19.5-3.09 5.23-8.86 13.78-12.81 19-3.95 5.23-12.08 14.63-18.05 20.9-5.98 6.27-14.47 14.2-18.87 17.62-4.4 3.42-11.6 8.56-16 11.42-4.4 2.85-12.95 7.59-19 10.52-6.05 2.93-14.37 6.53-18.5 8-4.12 1.48-12.23 3.97-18 5.54-5.77 1.56-15.23 3.53-21 4.36-5.77 0.83-14.77 1.8-20 2.16-5.23 0.36-15.12 0.15-22-0.46-6.87-0.62-17.23-2.03-23-3.14-5.77-1.11-16.57-4.05-24-6.52-7.43-2.47-18.23-6.82-24-9.66-5.77-2.85-14.55-7.84-19.5-11.1-4.95-3.25-11.7-7.99-15-10.52-3.3-2.52-9.78-8.2-14.4-12.61-4.63-4.4-11.8-12.06-15.93-17.01-4.14-4.95-10.21-13.05-13.48-18-3.28-4.95-8.83-14.85-12.34-22-3.51-7.15-8.14-18.4-10.3-25-2.15-6.6-4.81-16.5-5.91-22-1.1-5.5-2.28-12.7-2.61-16-0.33-3.3-0.81-7.91-1.07-10.25-0.45-4.17-0.56-4.28-5.71-5.71-2.89-0.8-14.25-3.26-25.25-5.45-11-2.2-26.97-4.89-35.5-5.98-8.53-1.1-18.42-2.3-22-2.68l-6.5-0.69c1.18 28.49 2.2 42.84 3.03 50.26 0.82 7.42 2.19 17.78 3.03 23 0.83 5.23 2.59 14.67 3.9 21 1.3 6.33 4.23 18.03 6.5 26 2.28 7.98 5.75 19 7.71 24.5 1.96 5.5 5.81 15.4 8.56 22 2.75 6.6 7.59 17.17 10.76 23.5 3.17 6.33 8.14 15.55 11.04 20.5 2.9 4.95 8.33 13.5 12.07 19 3.73 5.5 10.73 14.95 15.55 21 4.82 6.05 14.4 16.79 21.3 23.86 6.9 7.07 16.83 16.57 22.05 21.11 5.22 4.54 14.53 12.03 20.69 16.64 6.15 4.62 17.4 12.26 25 16.99 7.59 4.73 20.56 12.23 28.81 16.66 8.25 4.43 21.52 10.96 29.5 14.5 7.98 3.55 21.7 9.18 30.5 12.51 8.8 3.33 22.52 8.09 30.5 10.56 7.98 2.48 22.82 6.56 33 9.06 10.18 2.51 25.48 5.92 34 7.58 8.52 1.65 26.07 4.56 39 6.45 12.93 1.89 30.25 4.14 38.5 5 8.25 0.85 24.45 2.26 36 3.13 11.55 0.86 39.45 1.92 62 2.34 22.55 0.43 56.3 0.44 75 0.02 18.7-0.42 43.9-1.48 56-2.35 12.1-0.87 28.52-2.26 36.5-3.1 7.98-0.84 21.25-2.44 29.5-3.56 8.25-1.12 22.42-3.38 31.5-5.02 9.08-1.64 22.58-4.33 30-5.97 7.42-1.64 20.92-4.97 30-7.4 9.08-2.42 23.7-6.72 32.5-9.56 8.8-2.84 23.88-8.32 33.5-12.19 9.63-3.86 24.48-10.51 33-14.77 8.52-4.26 19.55-10.12 24.5-13.03 4.95-2.91 13.73-8.44 19.5-12.3 5.78-3.85 13.88-9.57 18-12.7 4.13-3.14 12.45-9.97 18.5-15.19 6.05-5.21 14.83-13.5 19.5-18.41 4.67-4.91 11.93-12.97 16.12-17.9 4.18-4.93 11.5-14.47 16.25-21.21 4.74-6.74 11.95-17.76 16-24.5 4.05-6.74 9.68-16.86 12.5-22.5 2.82-5.64 7.77-16.44 11.01-24 3.23-7.56 7.98-19.83 10.55-27.25 2.57-7.42 6.46-20.02 8.64-28 2.18-7.97 5.06-19.67 6.39-26 1.33-6.33 3.1-15.77 3.94-21 0.83-5.22 2.2-16.02 3.03-24 0.83-7.97 1.86-21.42 2.29-29.89l0.78-15.39c-4.65 0.9-9.15 1.44-13 1.79-3.85 0.36-13.08 1.52-20.5 2.58-7.42 1.07-22.28 3.74-33 5.93-10.72 2.19-21.53 4.59-24 5.34l-4.5 1.36c-1.04 12.23-2.09 20.06-3 25.28-0.92 5.23-3.24 14.67-5.16 21-1.92 6.33-5.06 15.1-6.98 19.5-1.92 4.4-5.77 12.28-8.56 17.5-2.78 5.23-7.18 12.65-9.77 16.5-2.6 3.85-8.1 11.05-12.23 16-4.13 4.95-11.96 13.28-17.4 18.52-5.45 5.24-13.73 12.38-18.4 15.87-4.67 3.49-11.65 8.18-15.5 10.42-3.85 2.24-11.95 6.39-18 9.23-6.05 2.84-14.6 6.34-19 7.77-4.4 1.43-11.83 3.55-16.5 4.72-4.67 1.16-12.77 2.75-18 3.52-5.23 0.78-14.45 1.7-20.5 2.05-6.13 0.35-16.09 0.13-22.5-0.51-6.33-0.62-16.23-2.07-22-3.21-5.77-1.15-15.9-3.85-22.5-6-6.6-2.15-17.4-6.55-24-9.79-6.6-3.23-16.73-8.99-22.5-12.8-5.77-3.81-14.55-10.33-19.5-14.48-4.95-4.16-12.39-11.1-16.53-15.43-4.13-4.34-9.49-10.35-11.9-13.38-2.41-3.02-7.06-9.55-10.33-14.5-3.27-4.95-8.55-14.17-11.72-20.5-3.17-6.33-7.44-16-9.49-21.5-2.04-5.5-4.77-14.5-6.06-20-1.28-5.5-3.04-14.72-3.89-20.5-0.86-5.77-1.55-13.2-1.54-16.5l0.02-6c-15.16-7.26-23.16-10.53-27.56-11.97-4.4-1.43-12.27-3.52-17.5-4.64-6.82-1.46-14.43-2.15-27-2.43-12.52-0.28-20.2 0.04-27 1.13z"/>
		<path id="Path 4" class="s2" d="m1014.56 87.56c-4.92 2.45-8.86 4.68-8.75 4.95 0.1 0.27 4.35-1.59 9.44-4.13 5.09-2.53 9.44-4.78 9.67-5 0.23-0.21 0-0.36-0.5-0.33-0.51 0.03-4.94 2.06-9.86 4.51zm-33.45 19.96c-4.61 3.03-8.32 5.73-8.25 6 0.08 0.26 3.63-1.83 7.89-4.66 4.26-2.82 8.18-5.52 8.7-6 0.52-0.47 0.75-0.86 0.5-0.86-0.25 0-4.22 2.48-8.84 5.52zm-68.62 57.73l-15.99 16.25c25.19-24.8 32.51-32.11 32.5-32.25 0-0.14-0.12-0.25-0.26-0.25-0.15 0-7.46 7.31-16.25 16.25zm-571.49-0.99c5.78 5.91 10.61 10.75 10.75 10.75 0.14-0.01 0.25-0.12 0.26-0.26 0-0.14-4.84-4.97-10.75-10.75l-10.76-10.5zm474 101.16c1.93 0.79 5.3 1.41 7.5 1.37l4-0.05c-6.97-1.1-10.35-1.72-12-2.09-2.71-0.6-2.66-0.53 0.5 0.77zm313.34 34.08c0.01 4.4 0.18 5.98 0.39 3.5 0.21-2.47 0.21-6.07 0-8-0.22-1.92-0.39 0.1-0.39 4.5zm-1004 2.5c0 4.13 0.17 5.93 0.39 4 0.21-1.92 0.21-5.3 0-7.5-0.22-2.2-0.39-0.62-0.39 3.5zm-0.91 33c0 12.38 0.14 17.33 0.32 11 0.17-6.32 0.17-16.45 0-22.5-0.18-6.05-0.32-0.87-0.32 11.5zm1005.98-4.5c0 9.9 0.15 13.73 0.34 8.5 0.18-5.22 0.18-13.32-0.01-18-0.18-4.67-0.33-0.4-0.33 9.5zm-1.04 35c0 5.5 0.17 7.53 0.37 4.5 0.2-3.02 0.2-7.52-0.01-10-0.2-2.47-0.37 0-0.36 5.5zm-1004.02 5c0 4.95 0.17 7.2 0.38 5 0.21-2.2 0.21-6.25 0.01-9-0.21-2.75-0.38-0.95-0.39 4zm0.98 21c0 3.85 0.18 5.2 0.4 3 0.21-2.2 0.21-5.35-0.01-7-0.22-1.65-0.4 0.15-0.39 4zm-4.32 99.5c-3.31 6.6-5.9 12.21-5.76 12.45 0.14 0.25 3.02-5.15 6.4-12 3.38-6.84 5.97-12.45 5.75-12.45-0.21 0-3.09 5.4-6.39 12zm371.49 136c4.4 4.41 8.23 8.02 8.5 8.02 0.27 0-2.97-3.6-7.2-8.01-4.24-4.4-8.07-8.01-8.5-8.01-0.44-0.01 2.8 3.6 7.2 8zm-23 25c4.4 4.41 8.23 8.02 8.5 8.02 0.27 0-2.97-3.6-7.2-8.01-4.24-4.4-8.07-8.01-8.5-8.01-0.44-0.01 2.8 3.6 7.2 8zm-233.03 0.25l-6.97 7.25c11.25-10.85 14.51-14.11 14.51-14.25-0.01-0.13-0.13-0.25-0.29-0.25-0.15 0-3.41 3.27-7.25 7.25zm293.29 26.21c2.61 5.2 4.85 9.25 4.99 9 0.14-0.25-1.77-4.51-4.25-9.46-2.48-4.95-4.72-9-4.99-9-0.27 0 1.64 4.26 4.25 9.46zm190.75-0.46c-2.48 4.95-4.4 9.21-4.26 9.46 0.14 0.25 2.34-3.8 4.89-9 2.56-5.2 4.48-9.46 4.26-9.46-0.21 0-2.41 4.05-4.89 9zm-215.31 28.25c0.28 0.69 1.28 3.73 2.23 6.75 0.95 3.03 1.9 5.28 2.13 5 0.22-0.27-0.45-3.31-1.5-6.75-1.05-3.43-2.24-6.25-2.64-6.25-0.4 0-0.5 0.57-0.22 1.25zm113.3 38.49c3.3 0.2 8.92 0.2 12.5 0 3.58-0.19 0.88-0.35-6-0.35-6.87 0-9.8 0.16-6.5 0.35zm441.9 15.76c0 8.25 0.16 11.4 0.34 7 0.19-4.4 0.19-11.15 0-15-0.19-3.85-0.34-0.25-0.34 8zm-326.03 0.5c0 5.78 0.17 8.03 0.37 5 0.2-3.02 0.2-7.75 0-10.5-0.2-2.75-0.37-0.27-0.37 5.5zm-47.37-3.64c0.27 0.22 3.31 1.81 6.75 3.53 3.44 1.71 6.25 2.89 6.25 2.61 0-0.27-2.7-1.85-6-3.5-3.3-1.65-6.34-3.01-6.75-3.02-0.41-0.02-0.52 0.15-0.25 0.38zm59.97 65.89c0.02 0.42 2.05 4.8 4.53 9.75 2.48 4.95 4.73 9 5 9 0.27 0-1.58-4.16-4.12-9.25-2.53-5.08-4.8-9.47-5.02-9.75-0.23-0.27-0.4-0.16-0.39 0.25zm-231.35 45.75c-2.54 3.85-4.39 7-4.12 7 0.27 0 2.22-2.58 4.33-5.75 2.1-3.16 4.11-6.31 4.46-7 0.35-0.68 0.48-1.25 0.3-1.25-0.19 0-2.42 3.15-4.97 7zm265.88 5c4.95 4.96 9.23 9.02 9.5 9.02 0.27 0-3.42-4.06-8.21-9.01-4.79-4.95-9.06-9.01-9.5-9.01-0.43-0.01 3.26 4.05 8.21 9zm-314.03 2.25l-6.97 7.25c11.25-10.85 14.51-14.11 14.51-14.25-0.01-0.13-0.13-0.25-0.29-0.25-0.15 0-3.41 3.27-7.25 7.25zm291.03 23.75c4.95 4.96 9.23 9.02 9.5 9.02 0.27 0-3.42-4.06-8.21-9.01-4.79-4.95-9.06-9.01-9.5-9.01-0.43-0.01 3.26 4.05 8.21 9zm-544 2c5.5 5.51 10.22 10.02 10.5 10.02 0.28 0-3.87-4.51-9.21-10.01-5.35-5.5-10.07-10.01-10.5-10.01-0.44-0.01 3.71 4.5 9.21 10zm271.98 2.25l-9.98 10.25c15.9-15.5 20.51-20.11 20.51-20.25-0.01-0.13-0.13-0.25-0.28-0.25-0.15 0-4.76 4.62-10.25 10.25zm-63.48 3.25c-4.68 2.42-8.16 4.43-7.75 4.45 0.41 0.03 4.35-1.75 8.75-3.95 4.4-2.2 8-4.22 8-4.5 0-0.27-0.11-0.47-0.25-0.45-0.14 0.03-4.08 2.03-8.75 4.45zm-75 17.24c3.02 0.2 8.2 0.2 11.5 0 3.3-0.2 0.82-0.36-5.5-0.36-6.33 0-9.02 0.16-6 0.36zm545.5 0c3.3 0.2 8.25 0.2 11 0 2.75-0.2 0.05-0.36-6-0.36-6.05 0-8.3 0.16-5 0.36zm-792.53 13.51c0.02 0.42 2.05 4.8 4.53 9.75 2.47 4.95 4.72 9 5 9 0.27 0-1.58-4.16-4.12-9.25-2.53-5.08-4.8-9.47-5.02-9.75-0.23-0.27-0.4-0.16-0.39 0.25zm246.53 21.49c2.2 0.21 6.02 0.21 8.5 0 2.47-0.21 0.67-0.39-4-0.39-4.68 0-6.7 0.18-4.5 0.39zm545 0c2.75 0.2 7.47 0.2 10.5 0 3.02-0.2 0.77-0.37-5-0.37-5.78 0-8.25 0.17-5.5 0.37zm-724 74.26c6.05 6.06 11.22 11.02 11.5 11.02 0.27 0-4.32-4.96-10.22-11.01-5.89-6.05-11.07-11.01-11.5-11.01-0.43 0 4.17 4.95 10.22 11zm813.5 74c-5.23 2.7-9.16 4.93-8.75 4.95 0.41 0.03 4.8-1.97 9.75-4.45 4.95-2.47 9-4.72 9-5 0-0.27-0.11-0.47-0.25-0.45-0.14 0.03-4.53 2.26-9.75 4.95zm-425.5 63.74c2.2 0.21 6.02 0.21 8.5 0 2.47-0.21 0.67-0.39-4-0.39-4.68 0-6.7 0.18-4.5 0.39zm137.5-0.01c1.92 0.22 5.3 0.22 7.5 0 2.2-0.21 0.62-0.39-3.5-0.39-4.13 0-5.93 0.18-4 0.39zm-106 1.02c6.87 0.17 18.57 0.17 26 0 7.42-0.17 1.8-0.31-12.5-0.31-14.3 0-20.38 0.14-13.5 0.31zm64 0c5.22 0.18 14 0.18 19.5 0 5.5-0.18 1.22-0.33-9.5-0.33-10.73 0-15.23 0.15-10 0.33z"/>
		<path id="Path 5" class="s1" d="m336.5 518.1c-1.65 0.51-3.85 1.71-4.89 2.66-1.04 0.96-2.5 3.2-3.25 4.99-0.75 1.79-1.36 4.83-1.36 6.75 0 1.92 0.63 4.74 1.4 6.25 0.76 1.51 2.23 3.53 3.25 4.47 1.02 0.95 15.35 5.81 31.85 10.8 16.5 4.98 44.4 13.41 62 18.71 17.6 5.3 33.57 9.64 35.5 9.64 1.93-0.01 5.07-0.9 7-1.98 1.93-1.07 4.29-3.52 5.25-5.42 0.96-1.91 1.75-5.16 1.75-7.22 0-2.06-0.51-4.76-1.12-6-0.62-1.24-2.09-3.28-3.25-4.53-1.17-1.25-5.51-3.36-9.63-4.69-4.13-1.32-21-6.46-37.5-11.42-16.5-4.95-41.48-12.41-55.5-16.57-14.02-4.16-26.18-7.52-27-7.47-0.82 0.06-2.85 0.52-4.5 1.03zm546 7.36c-15.4 4.57-42.85 12.9-61 18.52-18.15 5.61-34.25 10.95-35.79 11.86-1.53 0.91-3.66 3.46-4.73 5.66-1.08 2.2-1.95 5.12-1.95 6.5 0 1.37 0.89 4.41 1.98 6.75 1.56 3.33 3.02 4.72 6.74 6.41 4.02 1.82 5.37 2 8.75 1.13 2.2-0.57 15.25-4.48 29-8.7 13.75-4.22 31.75-9.7 40-12.2 8.25-2.49 16.13-4.93 17.5-5.41 1.37-0.49 9.7-2.98 18.5-5.54 8.8-2.56 17.25-5.39 18.79-6.3 1.53-0.9 3.66-3.44 4.73-5.64 1.08-2.2 1.95-5.13 1.94-6.5 0-1.38-0.89-4.41-1.98-6.75-1.48-3.17-3.06-4.75-6.23-6.23-2.34-1.09-5.15-1.95-6.25-1.93-1.1 0.03-14.6 3.79-30 8.37zm-525.5 145.6c-4.13 0.35-10.88 1.64-15 2.87-4.13 1.23-11.49 4.34-16.37 6.91-4.88 2.56-12.06 7.36-15.96 10.66-3.9 3.3-9.75 9.6-13 14-3.24 4.4-7.15 10.48-8.67 13.5-1.52 3.02-3.9 9.1-5.28 13.5-1.39 4.4-3.07 11.6-3.73 16-0.72 4.68-0.97 11.52-0.61 16.5 0.34 4.67 1.53 12.1 2.64 16.5 1.11 4.4 3.99 12.05 6.39 17 2.4 4.95 7 12.3 10.23 16.34 3.22 4.04 9.24 10.01 13.36 13.26 4.13 3.26 10.65 7.56 14.5 9.56 3.85 2 11.27 4.76 16.5 6.12 7.6 1.98 11.9 2.47 21.5 2.45 8.98-0.02 14.02-0.56 20-2.14 4.4-1.17 11.38-3.73 15.5-5.7 4.13-1.97 10.2-5.52 13.5-7.89 3.3-2.37 8.5-6.94 11.56-10.15 3.06-3.22 7.54-8.77 9.95-12.35 2.42-3.58 5.9-10.1 7.75-14.5 1.84-4.4 4.1-10.7 5.01-14 1.22-4.39 1.66-10.02 1.64-21-0.02-10.74-0.49-16.7-1.67-21-0.9-3.3-2.91-9.15-4.46-13-1.55-3.85-4.9-10.38-7.45-14.5-2.55-4.13-7.61-10.54-11.23-14.25-3.63-3.71-10.09-9.02-14.35-11.8-4.26-2.78-11.12-6.32-15.25-7.87-4.12-1.56-10.43-3.32-14-3.91-3.57-0.59-8.52-1.22-11-1.41-2.48-0.18-7.87-0.05-12 0.3zm522.5 0.07c-3.85 0.48-10.15 1.82-14 2.98-3.85 1.16-9.92 3.59-13.5 5.41-3.58 1.82-8.75 4.92-11.5 6.89-2.75 1.97-7.85 6.39-11.33 9.83-3.48 3.45-8.29 9.18-10.68 12.76-2.39 3.58-5.73 9.54-7.42 13.25-1.69 3.71-4 10.01-5.13 14-1.24 4.39-2.28 11.79-2.62 18.75-0.42 8.64-0.14 13.74 1.15 20.5 0.95 4.95 3.02 12.26 4.62 16.25 1.6 3.99 4.82 10.49 7.16 14.46 2.45 4.16 7.85 10.82 12.77 15.75 5.77 5.78 11.11 9.99 16.5 13.02 4.39 2.46 11.58 5.7 15.98 7.19 4.4 1.49 12.27 3.18 17.5 3.75 6.25 0.68 12.4 0.72 18 0.09 4.67-0.52 11.65-1.91 15.5-3.08 3.85-1.17 10.38-3.86 14.5-5.98 4.13-2.12 10.63-6.47 14.45-9.65 3.82-3.19 9.35-8.72 12.29-12.3 2.93-3.58 7.56-11 10.27-16.5 2.74-5.56 5.91-14 7.14-19 1.64-6.71 2.19-11.92 2.15-20.5-0.03-8.28-0.65-14.02-2.22-20.5-1.21-4.95-3.99-12.83-6.2-17.5-2.21-4.67-5.95-11.2-8.32-14.5-2.37-3.3-7.62-9.17-11.68-13.04-4.06-3.87-10.53-8.91-14.38-11.2-3.85-2.3-9.92-5.27-13.5-6.6-3.58-1.34-8.98-2.9-12-3.47-3.02-0.57-8.42-1.24-12-1.49-3.58-0.25-9.65-0.05-13.5 0.43zm-276.5 190.38c-4.67 0.73-11.42 2.3-15 3.49-3.58 1.19-8.08 3.1-10 4.24-1.92 1.14-4.78 3.24-6.34 4.67-1.56 1.42-3.78 4.39-4.92 6.59-1.45 2.79-2.06 5.81-2.03 10 0.03 4.47 0.8 7.66 3.02 12.5 1.63 3.58 5 9.2 7.49 12.5 2.48 3.3 6.94 8.21 9.9 10.91 2.96 2.7 8.76 7.1 12.88 9.79 4.13 2.69 8.29 5.09 9.25 5.34 1.28 0.34 1.75 1.47 1.73 4.21-0.01 2.06-0.73 6.45-1.6 9.75-0.87 3.3-3 8.91-4.73 12.47-1.74 3.56-5.84 9.33-9.15 12.84-4.06 4.31-8.1 7.39-12.48 9.53-5.82 2.84-7.4 3.16-15.5 3.15-7.94-0.01-9.62-0.34-14.02-2.75-2.75-1.51-6.12-3.67-7.5-4.8-1.37-1.14-4.52-2.28-7-2.56-3.18-0.34-5.51 0.04-7.93 1.32-1.88 0.99-4.28 2.92-5.33 4.3-1.04 1.37-2.14 4.75-2.44 7.5-0.42 3.88-0.07 5.96 1.58 9.25 1.57 3.15 4 5.49 9.37 9.02 4.34 2.85 10.46 5.75 15.25 7.22 6.49 1.99 10.07 2.44 19 2.4 9.31-0.04 12.23-0.48 19-2.8 4.4-1.51 10.69-4.4 13.98-6.42 3.29-2.02 8.43-5.92 11.43-8.67 2.99-2.75 7.39-7.59 9.77-10.75 2.37-3.16 4.55-5.75 4.82-5.75 0.27 0 1.9 1.91 3.62 4.25 1.71 2.34 5.43 6.65 8.25 9.59 2.82 2.94 7.83 7.19 11.13 9.44 3.3 2.25 8.25 5.1 11 6.34 2.75 1.23 8.49 2.95 12.75 3.81 4.26 0.86 10 1.57 12.75 1.57 2.75 0 8.49-0.7 12.75-1.56 4.26-0.86 10.45-2.82 13.75-4.35 3.3-1.53 8.36-4.66 11.25-6.94 3.59-2.84 5.76-5.49 6.85-8.4 1-2.64 1.37-5.58 1-7.75-0.33-1.92-1.42-4.85-2.41-6.5-1-1.65-3.47-3.79-5.5-4.75-2.03-0.96-5.27-1.75-7.19-1.75-1.92 0-4.51 0.53-5.75 1.18-1.24 0.65-4.05 2.59-6.25 4.31-2.2 1.71-6.48 3.72-9.5 4.45-3.38 0.82-8.01 1.11-12 0.76-4.59-0.41-8.37-1.55-12.89-3.89-3.87-2-8.52-5.59-11.75-9.06-3.04-3.26-6.85-8.89-8.81-13-1.9-3.99-4.14-10.17-4.99-13.75-0.84-3.58-1.54-7.74-1.55-9.25-0.01-2.23 0.7-3.06 3.74-4.37 2.06-0.9 6.23-3.21 9.25-5.15 3.02-1.95 8.38-6.28 11.9-9.63 3.52-3.36 8.6-9.48 11.28-13.6 2.69-4.13 5.61-9.75 6.49-12.5 1-3.15 1.45-7.28 1.21-11.16-0.3-4.85-1.02-7.07-3.41-10.5-1.67-2.39-5.04-5.7-7.5-7.36-2.46-1.66-7.51-4.02-11.22-5.25-3.71-1.23-11.25-2.9-16.75-3.73-5.5-0.83-15.74-1.46-22.75-1.4-7.01 0.05-16.58 0.69-21.25 1.41z"/>
		<path id="Path 6" class="s3" d="m1026 141.89c-1.38 0.44-3.63 1.38-5 2.11-1.38 0.72-6.1 4.03-10.5 7.36-4.4 3.32-14.78 12.81-23.07 21.09-8.28 8.28-19.79 20.68-25.56 27.55-5.78 6.88-13.88 17-18.02 22.5-4.13 5.5-10.66 14.73-14.51 20.5-3.85 5.78-9.39 14.55-12.29 19.5-2.91 4.95-6.59 11.59-8.17 14.75-1.73 3.46-2.88 7.34-2.88 9.75 0 2.2 0.61 5.46 1.36 7.25 0.75 1.79 2.21 4 3.25 4.92 1.04 0.92 11.34 7.38 22.89 14.34 11.55 6.97 32.7 20.48 47 30.04 14.3 9.55 34.55 23.7 45 31.44 10.45 7.74 21.03 15.01 23.5 16.16 3.2 1.49 5.51 1.91 8 1.46 1.92-0.34 4.51-1.3 5.75-2.12 1.24-0.82 3.16-2.95 4.26-4.74 1.11-1.79 2.51-5.05 3.11-7.25 0.61-2.2 1.73-7.82 2.5-12.5 0.77-4.67 2.06-15.92 2.88-25 0.81-9.07 1.48-26.17 1.48-38 0.01-11.82-0.65-28.92-1.45-38-0.8-9.07-2.16-21.22-3.03-27-0.86-5.77-2.48-15-3.59-20.5-1.12-5.5-3.1-14.27-4.41-19.5-1.32-5.22-3.81-13.77-5.54-19-1.73-5.22-4.82-13.1-6.86-17.5-2.03-4.4-5.48-9.97-7.65-12.37-2.17-2.4-5.08-4.95-6.45-5.65-1.38-0.71-4.08-1.53-6-1.83-1.92-0.3-4.63-0.19-6 0.24zm-811.05 2.51c-1.96 1.33-4.87 4.14-6.46 6.26-1.6 2.11-4.34 6.99-6.09 10.84-1.76 3.85-4.81 11.95-6.8 18-1.98 6.05-4.97 16.4-6.63 23-1.67 6.6-4.13 18.08-5.48 25.5-1.35 7.43-3.11 18.68-3.91 25-0.8 6.33-1.98 20.27-2.62 31-0.65 10.88-0.88 25.91-0.52 34 0.36 7.98 1.11 19.45 1.66 25.5 0.56 6.05 1.67 15.05 2.48 20 0.81 4.95 2.32 11.93 3.36 15.5 1.4 4.83 2.81 7.34 5.47 9.75 1.98 1.79 5.05 3.51 6.84 3.83 1.79 0.33 5.05 0.1 7.25-0.5 2.28-0.62 9.58-5.2 17-10.67 7.15-5.27 20.42-14.89 29.5-21.37 9.07-6.48 25.73-17.85 37-25.25 11.27-7.41 27.02-17.42 35-22.25 7.98-4.83 16.19-9.85 18.25-11.16 2.06-1.31 4.65-3.84 5.75-5.63 1.25-2.05 1.99-5.01 2-8 0-3.58-1.02-6.79-4.14-13-2.27-4.54-7.14-13.2-10.81-19.25-3.67-6.05-10.91-16.85-16.1-24-5.18-7.15-13.89-18.4-19.35-25-5.46-6.6-17.61-19.69-27.01-29.09-9.4-9.41-20.69-19.94-25.09-23.42-4.4-3.48-10.03-7.6-12.5-9.17-3.41-2.16-5.71-2.85-9.5-2.84-3.62 0.01-5.98 0.67-8.55 2.42z"/>
		<path id="Path 7" class="s2" d="m946.5 695c3.85 3.86 7.23 7.02 7.5 7.02 0.27 0-2.51-3.16-6.2-7.01-3.68-3.86-7.06-7.01-7.5-7.02-0.44 0 2.35 3.15 6.2 7.01zm-661.53 100.25c0.02 0.41 1.12 2.89 2.45 5.5 1.33 2.61 3.14 5.65 4.03 6.75 0.88 1.1-0.06-1.15-2.09-5-2.04-3.85-3.86-7.23-4.06-7.5-0.2-0.27-0.34-0.16-0.33 0.25zm335.03 64.49c3.57 0.2 8.97 0.19 12 0 3.02-0.2 0.1-0.36-6.5-0.36-6.6 0-9.08 0.17-5.5 0.36zm-94.08 126.01c-1.79 1.51-3.85 4.21-4.59 6-0.73 1.79-1.27 4.94-1.21 7 0.11 3.21 0.25 2.96 0.95-1.75 0.46-3.02 1.67-6.63 2.7-8 1.03-1.38 3.42-3.29 5.3-4.25 1.89-0.96 2.68-1.75 1.76-1.75-0.91 0-3.13 1.24-4.91 2.75z"/>
		<path id="Path 8" class="s0" d="m330.04 702.25c-3.53 1.79-7.69 4.83-9.25 6.75-1.56 1.92-3.72 5.86-4.81 8.75-1.09 2.89-1.99 7.61-1.99 10.5-0.01 2.89 0.65 7.27 1.46 9.75 0.8 2.48 3.43 6.75 5.84 9.5 2.74 3.13 6.4 5.92 9.79 7.47 4.15 1.89 7.06 2.46 12.42 2.43 4.85-0.02 8.38-0.65 11.5-2.06 2.48-1.12 6.5-4.02 8.95-6.44 2.45-2.42 5.33-6.42 6.4-8.9 1.07-2.48 2.14-7.2 2.39-10.5 0.34-4.48-0.07-7.39-1.61-11.5-1.21-3.22-3.84-7.31-6.35-9.89-2.35-2.41-6.53-5.44-9.28-6.74-3.76-1.77-6.75-2.35-12.03-2.36-5.95-0.01-8 0.48-13.43 3.24zm524.46-1.41c-2.2 0.98-5.97 3.56-8.37 5.72-2.41 2.17-5.55 6.19-6.99 8.94-2.2 4.21-2.61 6.27-2.58 13 0.04 6.23 0.53 8.94 2.24 12.25 1.21 2.34 3.66 5.87 5.45 7.84 1.79 1.97 5.73 4.79 8.75 6.25 4.35 2.1 6.97 2.66 12.5 2.66 5.53 0 8.16-0.56 12.5-2.65 3.17-1.53 7.33-4.71 9.81-7.5 2.65-2.99 4.86-6.77 5.76-9.85 0.8-2.75 1.45-7.48 1.46-10.5 0.01-4.06-0.76-7.07-2.91-11.5-1.61-3.3-4.43-7.31-6.27-8.91-1.84-1.59-5.6-3.95-8.35-5.24-3.76-1.75-6.74-2.33-12-2.32-4.55 0.01-8.4 0.64-11 1.81z"/>
		<path id="Path 9" class="s2" d="m861.5 698.72c1.65 0.22 4.8 0.22 7 0.01 2.2-0.22 0.85-0.4-3-0.4-3.85-0.01-5.65 0.17-4 0.39z"/>
	</g>
</svg>