<svg version="1.2" xmlns="http://www.w3.org/2000/svg" viewBox="0 0 1254 1254" width="1254" height="1254">
	<style>
		.s0 { fill: #fbfbfb } 
		.s1 { fill: #020101 } 
		.s2 { fill: #767475 } 
		.s3 { fill: #f86f9d } 
	</style>
	<g id="Background">
		<path id="Path 0" class="s0" d="m0 627v627h1254v-1254h-1254z"/>
		<path id="Path 1" class="s1" d="m246 81.92c-3.03 0.43-8.2 1.56-11.5 2.52-3.3 0.96-9.38 3.49-13.5 5.62-4.13 2.13-10.43 6.27-14 9.2-3.57 2.93-9.53 9.36-13.23 14.28-3.7 4.93-8.96 13.24-11.67 18.46-2.72 5.22-6.72 14-8.9 19.5-2.18 5.5-5.56 14.95-7.5 21-1.95 6.05-4.89 16.18-6.54 22.5-1.64 6.32-4.35 18.25-6.01 26.5-1.66 8.25-3.74 19.72-4.62 25.5-0.88 5.78-2.21 15.68-2.97 22-0.75 6.32-1.98 18.25-2.72 26.5-0.95 10.67-1.34 33.62-1.34 79.5 0 42.05 0.46 71.98 1.32 86l1.33 21.5c-10.88 20.93-16.14 31.73-18.7 37.5-2.57 5.77-6.59 15.23-8.95 21-2.36 5.77-7.02 18.6-10.35 28.5-3.34 9.9-7.85 25.2-10.04 34-2.18 8.8-5.1 21.85-6.48 29-1.38 7.15-3.19 18.17-4.01 24.5-0.83 6.33-2.04 17.58-2.69 25-0.76 8.64-1 23.93-0.66 42.5 0.38 21.05 1.1 33.52 2.64 45.5 1.17 9.08 3.49 23.48 5.17 32 1.67 8.52 4.38 20.9 6.02 27.5 1.64 6.6 4.81 17.85 7.06 25 2.24 7.15 6.01 18.17 8.38 24.5 2.37 6.33 6.3 16.23 8.74 22 2.44 5.77 6.75 15 9.56 20.5 2.82 5.5 7.01 13.37 9.31 17.5 2.3 4.12 8.01 13.35 12.69 20.5 4.67 7.15 11.9 17.5 16.05 23 4.16 5.5 8.25 10.85 9.08 11.89 0.84 1.04 5.63 6.66 10.64 12.5 5.01 5.83 14.91 16.25 22 23.14 7.09 6.89 17.17 16.08 22.39 20.42 5.22 4.34 12.87 10.4 17 13.46 4.12 3.07 7.73 5.82 8 6.12 0.27 0.3 5.9 4.17 12.5 8.59 6.6 4.42 15.82 10.33 20.5 13.13 4.68 2.8 11.87 6.94 16 9.2 4.12 2.26 13.12 6.84 20 10.18 6.87 3.34 15.65 7.55 19.5 9.35 3.85 1.8 11.73 5.19 17.5 7.52 5.77 2.34 15.45 6.04 21.5 8.22 6.05 2.19 17.07 5.91 24.5 8.27 7.43 2.36 21.6 6.33 31.5 8.83 9.9 2.49 22.5 5.44 28 6.55 5.5 1.11 15.62 2.98 22.5 4.15 6.87 1.16 20.83 3.19 31 4.51 10.17 1.31 28.85 3.16 41.5 4.11 16.39 1.22 35.36 1.73 66 1.77 27.02 0.03 48.57-0.43 58-1.24 8.25-0.71 21.52-1.92 29.5-2.68 7.98-0.77 22.15-2.55 31.5-3.96 9.35-1.4 23.98-3.93 32.5-5.61 8.52-1.69 21.8-4.63 29.5-6.55 7.7-1.91 20.08-5.29 27.5-7.5 7.42-2.21 18-5.52 23.5-7.37 5.5-1.85 17.42-6.35 26.5-10 9.08-3.65 25.95-11.25 37.5-16.89 11.55-5.64 25.95-13.1 32-16.58 6.05-3.48 16.85-10.15 24-14.82 7.15-4.67 17.5-11.88 23-16.02 5.5-4.14 15.17-11.84 21.5-17.11 6.33-5.26 16.4-14.3 22.39-20.08 5.98-5.77 14.79-15 19.57-20.5 4.78-5.5 11.83-14.05 15.67-19 3.84-4.95 9.92-13.27 13.5-18.5 3.59-5.23 9.36-14.23 12.82-20 3.46-5.77 9.62-17.14 13.67-25.25 4.06-8.11 9.6-20.04 12.31-26.5 2.71-6.46 7.93-20.75 11.59-31.75 3.66-11 8.39-27.2 10.5-36 2.12-8.8 4.99-22.08 6.39-29.5 1.4-7.42 3.24-18.9 4.09-25.5 0.86-6.6 2.04-18.98 2.64-27.5 0.64-9.01 0.86-27.43 0.54-44-0.39-20.41-1.12-32.76-2.57-43.5-1.12-8.25-3.2-21.3-4.62-29-1.43-7.7-4.1-20.08-5.95-27.5-1.85-7.42-5.19-19.58-7.43-27-2.24-7.42-6.04-18.67-8.44-25-2.39-6.33-6.27-16-8.61-21.5-2.34-5.5-6.78-15.17-9.87-21.5-3.09-6.32-7.63-15.1-10.08-19.5l-4.45-8c2.27-41.54 2.8-72.69 2.81-109.5 0.02-39.32-0.39-63.42-1.25-73.5-0.71-8.25-1.72-18.82-2.26-23.5-0.54-4.68-1.46-12.55-2.05-17.5-0.59-4.95-1.72-12.82-2.51-17.5-0.79-4.68-2.34-13.23-3.45-19-1.11-5.78-3.78-17.48-5.93-26-2.15-8.53-6-21.57-8.54-29-2.55-7.43-6.26-17.32-8.25-22-1.99-4.68-4.72-10.53-6.06-13-1.35-2.48-4.51-7.65-7.02-11.5-2.51-3.85-8.64-11.05-13.61-16-6.73-6.7-11.09-10.07-17.04-13.18-4.4-2.3-11.38-5.12-15.5-6.25-5.78-1.6-10.43-2.07-20.25-2.07-7.8 0-15.76 0.62-20.5 1.6-4.26 0.89-11.58 2.96-16.25 4.62-4.67 1.66-12.55 5.05-17.5 7.53-4.95 2.49-12.38 6.56-16.5 9.05-4.13 2.49-12 7.68-17.5 11.54-5.5 3.85-16.3 12.25-24 18.67-7.7 6.43-20.3 17.54-28 24.7-7.7 7.16-20.81 20.39-29.14 29.4-8.32 9.02-19.8 21.79-25.5 28.4-5.7 6.6-13.93 16.5-18.3 22-4.37 5.49-7.97 10.13-8 10.31-0.03 0.17-6.81-1.28-15.06-3.22-8.25-1.94-23.1-4.85-33-6.48-9.9-1.62-21.83-3.46-26.5-4.07-4.67-0.61-13-1.56-18.5-2.11-5.5-0.54-23.27-1.26-39.5-1.6-18.78-0.39-36.4-0.18-48.5 0.59-10.45 0.66-25.52 1.84-33.5 2.64-7.98 0.79-16.98 1.88-20 2.42-3.02 0.53-10.67 1.68-17 2.55-6.33 0.87-18.02 2.91-26 4.54-7.98 1.64-16.3 3.45-18.5 4.04-3.78 1-4.13 0.9-6.27-1.78-1.24-1.56-2.84-3.52-3.54-4.34-0.7-0.82-3.28-3.98-5.72-7-2.44-3.03-8.65-10.45-13.8-16.5-5.15-6.05-13.01-15.05-17.46-20-4.45-4.95-16.44-17.32-26.65-27.5-10.21-10.18-20.59-20.33-23.06-22.56-2.48-2.24-8.77-7.68-14-12.1-5.23-4.42-14.9-12.03-21.5-16.92-6.6-4.89-16.5-11.62-22-14.96-5.5-3.34-14.27-8.12-19.5-10.62-5.23-2.51-12.88-5.72-17-7.15-4.13-1.43-10.65-3.26-14.5-4.08-3.85-0.82-11.05-1.71-16-1.98-4.95-0.27-11.48-0.14-14.5 0.29z"/>
		<path id="Path 2" class="s2" d="m995.5 81.73c2.2 0.21 6.02 0.21 8.5 0 2.48-0.21 0.67-0.38-4-0.38-4.67 0-6.7 0.17-4.5 0.38zm-855.04 288.27c0 22.82 0.13 32.05 0.29 20.5 0.16-11.55 0.16-30.23 0-41.5-0.16-11.27-0.29-1.83-0.29 21zm972.96-3.5c0 11.55 0.15 16.05 0.33 10 0.17-6.05 0.17-15.5 0-21-0.18-5.5-0.33-0.55-0.33 11zm-1.08 53.5c0 4.12 0.17 5.92 0.39 4 0.21-1.93 0.21-5.3 0-7.5-0.22-2.2-0.39-0.63-0.39 3.5z"/>
		<path id="Path 3" class="s0" d="m247 116.14c-2.47 0.5-7.15 2.37-10.4 4.14-3.24 1.77-8.42 5.92-11.52 9.22-3.1 3.3-7.49 9.15-9.75 13-2.27 3.85-5.9 11.28-8.08 16.5-2.18 5.22-5.61 14.56-7.61 20.75-2 6.19-5 16.54-6.66 23-1.65 6.46-4.34 18.5-5.97 26.75-1.63 8.25-3.64 19.5-4.48 25-0.83 5.5-2.18 16.07-3.01 23.5-0.83 7.43-1.96 19.35-2.51 26.5-0.56 7.15-1.3 27.18-1.65 44.5-0.39 19.2-0.18 42.24 0.54 59 0.65 15.13 2.07 38.64 3.14 52.25 1.08 13.61 1.67 25.99 1.32 27.5-0.35 1.51-3.25 7.48-6.44 13.25-3.2 5.77-8.95 17.02-12.79 25-3.84 7.98-9.23 20.13-11.98 27-2.75 6.87-6.85 17.9-9.12 24.5-2.27 6.6-5.85 18.3-7.96 26-2.12 7.7-5.23 20.75-6.92 29-1.68 8.25-3.97 21.3-5.07 29-1.1 7.7-2.47 20.3-3.04 28-0.57 7.7-1.03 19.06-1.04 25.25 0 6.19 0.69 19.91 1.53 30.5 0.84 10.59 2.46 25.1 3.59 32.25 1.13 7.15 3.38 19.3 5.02 27 1.63 7.7 4.73 20.3 6.89 28 2.15 7.7 5.76 19.17 8.02 25.5 2.26 6.33 6.13 16.45 8.62 22.5 2.48 6.05 7.34 16.63 10.79 23.5 3.45 6.87 7.29 14.3 8.53 16.5 1.23 2.2 3.09 5.24 4.13 6.75 1.03 1.51 1.88 2.98 1.88 3.25 0 0.27 3.79 6.24 8.43 13.25 4.64 7.01 9.25 13.81 10.25 15.1 1 1.29 4.92 6.24 8.7 11 3.78 4.76 7.83 9.66 9 10.89 1.17 1.23 7.52 7.98 14.12 15 6.6 7.02 15.6 15.95 20 19.85 4.4 3.91 12.73 10.89 18.5 15.53 5.77 4.64 14.77 11.42 20 15.06 5.23 3.65 14.56 9.82 20.75 13.72 6.19 3.91 11.48 7.1 11.75 7.1 0.27 0 3.31 1.69 6.75 3.76 3.44 2.07 10.98 6.09 16.75 8.94 5.77 2.84 14.1 6.82 18.5 8.83 4.4 2.01 14.52 6.27 22.5 9.46 7.98 3.2 19.9 7.63 26.5 9.85 6.6 2.21 19.88 6.27 29.5 9 9.63 2.73 25.15 6.57 34.5 8.52 9.35 1.96 22.18 4.45 28.5 5.53 6.32 1.09 20.73 3.13 32 4.53 11.27 1.41 28.15 3.2 37.5 3.98 12.28 1.03 29.77 1.34 63 1.14 33.59-0.2 50.45-0.73 62.5-1.93 9.08-0.91 23.92-2.55 33-3.66 9.08-1.1 22.8-3.12 30.5-4.5 7.7-1.37 20.3-3.88 28-5.58 7.7-1.7 20.52-4.87 28.5-7.05 7.98-2.18 21.92-6.44 31-9.47 9.08-3.02 23.25-8.22 31.5-11.54 8.25-3.32 22.65-9.77 32-14.33 9.35-4.56 22.63-11.53 29.5-15.49 6.88-3.95 17.45-10.45 23.5-14.44 6.05-3.99 16.02-11.03 22.15-15.65 6.13-4.62 17.11-13.57 24.39-19.9 7.29-6.33 17.74-16.23 23.22-22 5.49-5.77 14.33-15.9 19.65-22.5 5.31-6.6 13.54-17.85 18.28-25 4.74-7.15 11.44-17.95 14.89-24 3.46-6.05 8.27-15.27 10.69-20.5 2.42-5.23 6.44-14.45 8.93-20.5 2.48-6.05 6.92-18.2 9.84-27 2.93-8.8 6.68-21.4 8.33-28 1.65-6.6 4.35-18.52 6-26.5 1.65-7.98 3.9-21.25 5-29.5 1.1-8.25 2.56-22.88 3.24-32.5 0.98-13.68 1-22.08 0.08-38.5-0.64-11.55-2.05-28.42-3.14-37.5-1.08-9.08-3.34-23.25-5.02-31.5-1.69-8.25-4.45-20.17-6.14-26.5-1.69-6.33-5.44-18.7-8.33-27.5-2.9-8.8-8.51-23.65-12.49-33-3.97-9.35-10.28-22.85-14.02-30-3.74-7.15-8.13-15.25-9.76-18-1.63-2.75-3.54-6.8-4.26-9-0.94-2.89-1.11-7.04-0.61-15 0.38-6.05 1.11-15.95 1.61-22 0.51-6.05 1.42-19.1 2.03-29 0.6-9.9 1.09-36.9 1.07-60-0.01-23.1-0.52-48.07-1.12-55.5-0.61-7.43-1.79-20.02-2.63-28-0.84-7.98-2.86-22.6-4.49-32.5-1.63-9.9-4.5-24.75-6.37-33-1.88-8.25-5.05-20.4-7.05-27-1.99-6.6-5.11-15.82-6.91-20.5-1.81-4.68-4.76-11.43-6.56-15-1.8-3.57-5.11-9.2-7.36-12.5-2.24-3.3-6.34-8.13-9.11-10.74-2.77-2.61-7.28-5.86-10.03-7.24-2.75-1.37-7.7-3.03-11-3.68-4.59-0.91-7.88-0.92-14-0.03-4.4 0.64-11.37 2.3-15.5 3.7-4.12 1.4-12 4.81-17.5 7.58-5.5 2.77-14.95 8.35-21 12.41-6.05 4.06-16.24 11.57-22.65 16.69-6.41 5.12-16.98 14.1-23.5 19.96-6.52 5.86-18.15 17.11-25.86 25-7.7 7.89-19.2 20.2-25.55 27.35-6.35 7.15-16.51 19.07-22.58 26.5-6.07 7.43-13.69 17.04-16.95 21.37-3.25 4.34-7.15 8.5-8.66 9.25-1.51 0.76-5 1.38-7.75 1.38-2.75 0-6.69-0.66-8.75-1.46-2.06-0.81-8.92-2.82-15.25-4.47-6.33-1.65-17.13-4.13-24-5.51-6.87-1.38-18.58-3.4-26-4.49-7.42-1.09-21.38-2.67-31-3.51-10.79-0.95-29.19-1.55-48-1.58-19.15-0.02-37.57 0.55-49.5 1.52-10.45 0.86-25.52 2.47-33.5 3.59-7.98 1.12-20.35 3.16-27.5 4.54-7.15 1.38-18.18 3.81-24.5 5.4-6.32 1.59-14.2 3.81-17.5 4.94-3.3 1.14-7.01 2.05-8.25 2.05-1.24-0.01-4.13-0.81-6.44-1.77-2.89-1.21-5.42-3.45-8.19-7.25-2.2-3.02-8.52-11.13-14.04-18-5.52-6.88-15.45-18.8-22.06-26.5-6.61-7.7-19.67-21.83-29.02-31.4-9.35-9.57-23.1-22.85-30.55-29.5-7.45-6.66-17.35-15.07-22-18.7-4.65-3.63-13.4-9.93-19.45-14-6.05-4.07-11.9-7.96-13-8.64-1.1-0.69-5.38-3-9.5-5.14-4.13-2.14-11.32-5.24-16-6.89-4.68-1.65-11.76-3.5-15.75-4.11-3.99-0.62-8.49-1.07-10-1.01-1.51 0.06-4.78 0.52-7.25 1.03z"/>
		<path id="Path 4" class="s2" d="m623.5 265.75c5.5 0.17 14.73 0.17 20.5 0 5.77-0.18 1.27-0.33-10-0.33-11.27 0-16 0.15-10.5 0.33zm454.87 83.25c0 5.77 0.17 8.02 0.37 5 0.2-3.02 0.2-7.75 0-10.5-0.2-2.75-0.37-0.27-0.37 5.5zm0 34.5c0.01 6.05 0.17 8.3 0.37 5 0.2-3.3 0.2-8.25 0-11-0.21-2.75-0.37-0.05-0.37 6zm-5.04 96c0 3.85 0.18 5.2 0.4 3 0.21-2.2 0.21-5.35-0.01-7-0.22-1.65-0.4 0.15-0.39 4z"/>
		<path id="Path 5" class="s1" d="m837.5 508.03c-4.4 0.5-11.38 1.62-15.5 2.5-4.13 0.88-11.1 2.76-15.5 4.17-4.4 1.42-12.5 4.79-18 7.49-5.5 2.71-13.83 7.46-18.5 10.56-4.73 3.14-13.17 10.31-19.05 16.19-5.8 5.81-12.63 13.71-15.17 17.56-2.54 3.85-6.66 10.83-9.15 15.5-2.49 4.67-6.09 13.23-8.01 19-1.92 5.78-4.25 14.1-5.19 18.5-1.13 5.32-1.73 12.86-1.77 22.5-0.05 10.22 0.46 17.16 1.73 23.5 0.99 4.95 3.05 12.38 4.58 16.5 1.52 4.13 3.95 9.86 5.4 12.75 1.45 2.89 4.99 8.69 7.88 12.9 2.89 4.21 9.3 11.53 14.25 16.26 4.95 4.73 11.48 10.26 14.5 12.29 3.02 2.02 9.77 5.72 15 8.21 5.23 2.49 14 5.76 19.5 7.26 9.13 2.49 11.57 2.74 28 2.77 14.11 0.03 19.73-0.37 26-1.83 4.4-1.02 11.15-3.06 15-4.53 3.85-1.47 9.92-4.29 13.5-6.26 3.58-1.97 9.88-6.26 14-9.52 4.13-3.26 9.46-8.15 11.85-10.86 2.39-2.72 6.45-8.09 9.04-11.94 2.58-3.85 6.2-10.6 8.03-15 1.84-4.4 4.23-12.27 5.31-17.5 1.61-7.72 1.88-11.94 1.45-22.5-0.35-8.59-1.21-15.38-2.54-20-1.1-3.85-3.28-9.7-4.84-13-1.56-3.3-4.38-8.25-6.27-11-1.88-2.75-5.92-7.63-8.98-10.85-3.05-3.22-7.57-7.34-10.05-9.15-2.48-1.82-7.65-4.88-11.5-6.81-3.85-1.93-9.7-4.22-13-5.08-3.3-0.86-9.6-2.02-14-2.58-5.36-0.68-10.89-0.69-16.75-0.02-4.81 0.54-12.24 2.23-16.51 3.74-4.27 1.51-10.37 4.33-13.56 6.25-3.19 1.92-8.08 5.53-10.87 8-2.79 2.48-7.17 7.65-9.73 11.5-2.56 3.86-5.92 10.81-7.48 15.5-2.31 6.89-2.87 10.39-2.97 18.5-0.09 7.83 0.37 11.52 2.11 17 1.22 3.85 4.03 9.81 6.24 13.25 2.64 4.1 6.17 7.81 10.27 10.81 3.44 2.5 8.73 5.5 11.75 6.66 4.2 1.61 7.74 2.11 15 2.11 7.22 0 10.82-0.5 15-2.09 3.3-1.26 7.83-4.22 11.34-7.42 3.33-3.03 6.89-7.47 8.27-10.32 1.34-2.75 2.71-7.48 3.05-10.5 0.34-3.02 0.13-7.08-0.46-9-0.59-1.92-2.45-4.74-4.14-6.25-1.68-1.51-4.52-3.04-6.31-3.39-2.36-0.46-4.63 0.02-8.25 1.75-4.69 2.24-5.12 2.78-7 8.61-1.1 3.42-2.9 7.15-4 8.3-1.22 1.28-3.75 2.28-6.5 2.59-3.18 0.35-5.52-0.03-7.97-1.31-1.92-0.99-4.84-3.75-6.5-6.14-2.65-3.78-3.08-5.37-3.42-12.5-0.34-7.2-0.06-8.87 2.32-14.16 1.48-3.3 3.8-7.46 5.13-9.25 1.34-1.79 4.8-4.84 7.69-6.77 2.89-1.94 8.17-4.43 11.75-5.53 3.96-1.21 9.24-1.98 13.5-1.95 3.85 0.02 9.7 0.74 13 1.6 3.3 0.86 8.64 2.99 11.87 4.73 3.23 1.75 8.45 5.87 11.6 9.17 3.16 3.3 7.1 8.7 8.78 12 1.67 3.3 3.83 8.7 4.8 12 1.07 3.64 1.79 9.53 1.83 15 0.04 4.95-0.53 11.48-1.26 14.5-0.73 3.02-3.05 9.1-5.16 13.5-2.11 4.4-6.01 10.58-8.65 13.73-2.65 3.15-7.51 7.8-10.81 10.34-3.3 2.53-9.15 6.12-13 7.97-3.85 1.85-9.7 4.09-13 4.99-3.3 0.9-11.17 1.89-17.5 2.21-7.2 0.35-14.49 0.09-19.5-0.7-4.4-0.69-10.92-2.34-14.5-3.66-3.58-1.32-7.62-2.95-9-3.62-1.37-0.66-5.65-3.31-9.5-5.88-3.85-2.57-9.5-7.3-12.56-10.52-3.05-3.23-7.05-8.11-8.87-10.86-1.82-2.75-4.33-7.02-5.58-9.5-1.25-2.48-3.24-7.42-4.41-11-1.18-3.58-2.77-10.33-3.53-15-1.03-6.25-1.17-11.15-0.53-18.5 0.47-5.5 1.35-12.25 1.95-15 0.6-2.75 2.04-7.92 3.2-11.5 1.16-3.58 3.68-9.65 5.6-13.5 1.91-3.85 5.79-10.33 8.61-14.4 2.81-4.06 8.98-11.04 13.7-15.5 4.73-4.45 12.15-10.24 16.5-12.85 4.36-2.62 12.19-6.52 17.42-8.68 5.23-2.16 14-4.84 19.5-5.96 5.5-1.11 14.05-2.33 19-2.7 5.44-0.41 12.56-0.2 18 0.54 4.95 0.66 13.05 2.25 18 3.52 4.95 1.27 12.15 3.64 16 5.26 3.85 1.62 11.05 5.58 16 8.8 4.97 3.22 12.82 9.68 17.53 14.41 4.69 4.71 10.3 11.26 12.47 14.56 2.17 3.3 5.84 9.6 8.15 14 2.32 4.4 5.79 12.73 7.72 18.5 1.93 5.77 4.21 15.23 5.06 21 0.85 5.77 1.55 14.33 1.56 19 0 4.67-0.67 12.33-1.5 17-0.83 4.67-2.44 11.88-3.59 16-1.14 4.13-4.09 11.77-6.55 17-2.46 5.23-7.01 13.33-10.11 18-3.1 4.67-9.93 12.81-15.19 18.07-5.25 5.26-13.15 11.99-17.55 14.94-4.4 2.95-11.6 7.05-16 9.1-4.4 2.04-11.6 4.71-16 5.92-4.4 1.21-10.25 2.78-13 3.5-3.47 0.9-6 2.4-8.25 4.89-2.6 2.86-3.25 4.43-3.25 7.83 0.01 2.49 0.83 5.6 2 7.5 1.1 1.79 3.58 3.92 5.5 4.75 1.92 0.83 5.86 1.49 8.75 1.49 2.89-0.01 8.17-0.7 11.75-1.53 3.58-0.83 9.42-2.46 13-3.62 3.58-1.16 10.77-4.2 16-6.76 5.23-2.56 13.77-7.57 19-11.12 5.23-3.55 13.57-10.51 18.55-15.46 4.98-4.95 11.55-12.37 14.61-16.5 3.05-4.12 7.49-10.65 9.85-14.5 2.37-3.85 6.21-11.27 8.53-16.5 2.33-5.23 5.39-13.33 6.81-18 1.42-4.67 3.28-12.55 4.13-17.5 0.84-4.95 1.81-13.73 2.14-19.5 0.33-5.77 0.1-15.79-0.51-22.25-0.61-6.46-1.82-14.79-2.69-18.5-0.87-3.71-2.89-10.8-4.49-15.75-1.59-4.95-5.29-13.73-8.22-19.5-2.93-5.77-7.76-13.87-10.72-18-2.96-4.12-9.01-11.24-13.44-15.82-4.43-4.57-10.53-10.2-13.55-12.5-3.02-2.3-6.17-4.8-7-5.56-0.83-0.76-4.65-3.21-8.5-5.44-3.85-2.22-9.92-5.49-13.5-7.24-3.58-1.76-10.89-4.61-16.25-6.32-5.36-1.72-13.91-3.79-19-4.6-5.09-0.81-14.65-1.68-21.25-1.93-6.6-0.25-15.6-0.05-20 0.44zm-449.5 0.59c-1.93 0.25-7.1 1.16-11.5 2.02-4.4 0.87-11.6 2.71-16 4.09-4.4 1.39-11.94 4.27-16.75 6.4-4.81 2.13-12.46 6.17-17 8.99-4.54 2.81-10.95 7.2-14.25 9.74-3.3 2.54-9.84 8.45-14.53 13.13-4.69 4.68-11.72 13.01-15.62 18.51-3.91 5.5-9.4 14.5-12.2 20-2.8 5.5-6.67 14.73-8.6 20.5-1.93 5.77-4.24 15.67-5.14 22-1.21 8.52-1.49 15.39-1.08 26.5 0.36 9.55 1.34 18.63 2.71 25 1.18 5.5 3.54 13.83 5.25 18.5 1.71 4.67 5.19 12.55 7.73 17.5 2.55 4.95 6.26 11.48 8.25 14.5 2 3.02 5.07 7.52 6.83 10 1.75 2.48 5.94 7.59 9.3 11.37 3.35 3.78 9.48 9.67 13.6 13.09 4.13 3.42 10.88 8.45 15 11.19 4.13 2.74 10.88 6.58 15 8.54 4.13 1.96 10.65 4.69 14.5 6.08 3.85 1.39 10.49 3.25 14.75 4.13 4.26 0.88 10 1.6 12.75 1.6 2.75 0 6.66-0.79 8.69-1.75 2.03-0.96 4.5-3.1 5.5-4.75 0.99-1.65 1.8-4.91 1.81-7.25 0-3.4-0.65-4.97-3.25-7.83-2.91-3.2-4.62-3.94-16.25-7.02-7.15-1.9-16.82-5.27-21.5-7.5-4.68-2.24-11.65-6.13-15.5-8.65-3.85-2.52-11.74-9.34-17.54-15.17-6.73-6.75-12.91-14.19-17.09-20.58-3.59-5.5-8.24-13.6-10.33-18-2.08-4.4-4.95-12.27-6.36-17.5-2.38-8.77-2.57-11.06-2.55-30 0.02-18.76 0.23-21.31 2.56-30 1.4-5.23 4.2-13.33 6.22-18 2.03-4.67 6.68-13 10.34-18.5 3.66-5.5 10.16-13.49 14.45-17.75 4.29-4.26 11.06-9.94 15.05-12.61 3.99-2.68 10.63-6.56 14.75-8.63 4.13-2.07 12-5.25 17.5-7.07 5.5-1.82 13.82-3.85 18.5-4.51 5.15-0.74 13.82-1.01 22-0.69 8.85 0.35 16.26 1.24 21.5 2.59 4.4 1.14 11.38 3.45 15.5 5.13 4.13 1.68 10.65 4.87 14.5 7.07 3.85 2.21 10.38 6.83 14.5 10.28 4.13 3.44 10.56 10.07 14.29 14.72 3.74 4.66 8.99 12.74 11.68 17.97 2.68 5.23 5.99 13.33 7.35 18 1.36 4.67 3.01 13 3.67 18.5 0.65 5.51 0.89 13.14 0.52 17-0.36 3.85-1.49 10.6-2.5 15-1.01 4.4-2.92 10.48-4.25 13.5-1.32 3.02-4.1 8.2-6.18 11.5-2.08 3.3-6.32 8.64-9.43 11.87-3.11 3.23-8.8 7.97-12.65 10.53-3.85 2.56-10.6 6.16-15 8-4.4 1.84-11.15 4-15 4.81-5.04 1.06-10.92 1.34-21 1.01-10.72-0.36-15.64-0.99-21-2.69-3.85-1.23-9.7-3.64-13-5.38-3.3-1.73-6.87-3.82-7.94-4.65-1.07-0.83-4.6-3.98-7.85-7-3.24-3.02-7.85-8.42-10.23-12-2.44-3.66-5.73-10.65-7.53-16-2.73-8.14-3.2-10.93-3.21-19.5-0.02-6.87 0.53-11.72 1.74-15.5 0.97-3.02 3.4-8.61 5.39-12.42 2-3.81 5.92-9.21 8.72-12 2.8-2.79 7.75-6.5 11-8.23 3.25-1.74 8.39-3.88 11.41-4.76 3.02-0.89 8.43-1.61 12-1.6 3.57 0 9.2 0.7 12.5 1.57 3.3 0.86 8.25 2.86 11 4.44 2.75 1.58 6.64 4.59 8.65 6.69 2.01 2.09 4.9 6.29 6.44 9.31 1.93 3.8 2.92 7.5 3.21 12 0.23 3.58-0.08 8.41-0.69 10.75-0.61 2.34-2.35 5.68-3.86 7.42-1.51 1.74-4.21 3.76-6 4.5-1.79 0.73-4.82 1.33-6.75 1.33-2.22 0-4.51-0.86-6.25-2.34-1.67-1.43-3.27-4.26-4.07-7.25-0.72-2.7-2.52-6.16-4-7.69-1.47-1.52-4.03-3.23-5.68-3.8-2.06-0.7-4.33-0.69-7.25 0.03-2.64 0.65-5.2 2.18-6.75 4.05-1.37 1.65-2.78 4.69-3.13 6.75-0.35 2.06-0.35 5.66 0 8 0.35 2.34 1.87 6.79 3.38 9.89 1.69 3.47 4.87 7.54 8.25 10.57 3.2 2.87 7.8 5.79 11 6.97 3.02 1.12 8.2 2.27 11.5 2.55 3.3 0.28 8.48 0 11.5-0.63 3.02-0.63 7.98-2.3 11-3.73 3.02-1.42 8.12-5.12 11.33-8.23 3.21-3.1 7.12-7.89 8.69-10.64 1.57-2.75 3.56-7.7 4.42-11 0.87-3.3 1.57-10.05 1.57-15 0-4.95-0.7-11.7-1.55-15-0.85-3.3-3.1-9.15-4.98-13-1.89-3.85-5.81-9.66-8.71-12.92-2.9-3.25-7.75-7.73-10.77-9.94-3.02-2.22-8.65-5.47-12.5-7.22-3.85-1.76-10.26-3.92-14.25-4.81-3.99-0.88-11.64-1.61-17-1.6-6.11 0-12.74 0.72-17.75 1.91-4.4 1.05-10.48 2.99-13.5 4.32-3.02 1.32-8.2 4.13-11.5 6.24-3.3 2.11-8.64 6.35-11.87 9.43-3.22 3.07-7.81 8.29-10.18 11.59-2.37 3.3-5.86 9.38-7.76 13.5-1.9 4.13-4.21 10.42-5.13 14-0.93 3.58-1.96 11.23-2.28 17-0.37 6.58-0.11 13.48 0.69 18.5 0.7 4.4 2.17 10.7 3.26 14 1.09 3.3 2.92 8.02 4.06 10.5 1.14 2.48 4.53 8.33 7.53 13 3 4.67 8.88 11.83 13.07 15.9 4.19 4.08 10.31 9.15 13.61 11.28 3.3 2.13 9.82 5.72 14.5 7.99 4.68 2.26 12.77 5.23 18 6.59 7.31 1.91 12.96 2.59 24.5 2.97 9.45 0.32 17.77 0.05 22.5-0.72 4.13-0.67 12-2.69 17.5-4.49 5.5-1.79 13.15-4.84 17-6.77 3.85-1.94 10.6-6.2 15-9.49 4.4-3.28 10.97-9.07 14.61-12.86 3.63-3.8 8.78-10.27 11.45-14.4 2.67-4.12 6.27-10.87 8.02-15 1.74-4.12 4.09-10.65 5.22-14.5 1.13-3.85 2.59-10.37 3.24-14.5 0.76-4.75 1-13.36 0.67-23.5-0.41-12.45-1.09-18.22-3.04-26-1.38-5.5-3.48-12.48-4.66-15.5-1.17-3.02-4.2-9.55-6.72-14.5-2.53-4.95-6.87-12.37-9.66-16.5-2.78-4.12-7.78-10.63-11.1-14.45-3.31-3.82-8.73-9.12-12.03-11.77-3.3-2.66-6.45-5.19-7-5.64-0.55-0.44-3.48-2.39-6.5-4.32-3.02-1.93-9.77-5.55-15-8.04-5.23-2.49-13.32-5.71-18-7.15-4.68-1.44-12.1-3.31-16.5-4.15-4.4-0.85-14.75-1.71-23-1.92-8.25-0.21-16.57-0.18-18.5 0.06zm220 230.78c-5.88 0.75-12.7 2.29-15.5 3.52-2.75 1.21-6.06 3.18-7.35 4.39-1.29 1.2-3.2 3.88-4.25 5.94-1.04 2.06-1.9 5.77-1.9 8.25 0 2.88 0.99 6.51 2.75 10.11 1.67 3.39 5.31 8.05 9.25 11.82 3.58 3.42 10.27 8.88 14.87 12.14l8.36 5.93c-1.11 6.98-2.37 11.48-3.52 14.5-1.15 3.02-3.94 8.2-6.2 11.5-2.26 3.3-6.79 8.05-10.06 10.56-3.27 2.5-8.65 5.64-11.95 6.98-5.07 2.04-7.71 2.42-17.02 2.44-10.37 0.02-11.41-0.17-17.5-3.15-4.09-2-7.95-4.88-10.48-7.81-2.2-2.55-5.58-6.44-7.5-8.64-2.7-3.09-4.41-4.11-7.5-4.5-2.79-0.35-5.04 0.07-7.44 1.39-1.89 1.04-4.26 3.42-5.25 5.31-1 1.88-1.81 4.77-1.79 6.42 0.01 1.65 0.85 4.8 1.86 7 1 2.2 3.69 6.36 5.97 9.25 2.28 2.89 7.41 7.51 11.4 10.27 3.99 2.76 9.33 5.8 11.88 6.75l4.63 1.73c1.08 36.05 1.68 42.07 3.62 50.5 1.34 5.77 3.62 13.65 5.09 17.5 1.46 3.85 4.76 11.05 7.33 16 3.75 7.23 6.55 10.88 14.19 18.53 5.61 5.62 12.17 11.06 16.01 13.27 3.58 2.06 10.1 4.95 14.5 6.42 7.16 2.39 9.53 2.68 22.5 2.73 12.5 0.04 15.54-0.28 22-2.29 4.13-1.29 10.42-3.87 14-5.74 3.58-1.87 9.2-5.58 12.5-8.23 3.3-2.66 8.32-7.73 11.16-11.26 2.84-3.54 7.2-10.26 9.69-14.93 2.49-4.67 5.88-12.55 7.53-17.5 1.65-4.95 3.75-13.27 4.67-18.5 1.11-6.29 1.73-15.69 1.81-27.84l0.14-18.33c10.85-5.06 16.7-8.57 20-11.07 3.3-2.5 7.94-7.18 10.31-10.4 2.37-3.22 4.79-7.44 5.37-9.36 0.59-1.92 0.8-5.08 0.48-7-0.32-1.92-1.5-4.74-2.62-6.25-1.12-1.51-3.73-3.25-5.79-3.86-2.06-0.61-5.1-0.86-6.75-0.55-1.82 0.34-4.37 2.16-6.5 4.63-1.92 2.23-5.3 6.11-7.5 8.63-2.5 2.86-6.43 5.75-10.5 7.72-5.34 2.58-8.02 3.21-15 3.54-6.09 0.28-10.2-0.1-14.5-1.34-3.3-0.95-8.14-2.81-10.75-4.12-2.61-1.32-7.57-5.21-11.02-8.65-4.2-4.18-7.39-8.57-9.63-13.25-1.84-3.85-3.83-9.25-4.4-12-0.58-2.75-0.82-5.67-0.53-6.5 0.28-0.83 4.3-4.17 8.92-7.43 4.63-3.26 11.36-8.88 14.96-12.5 3.6-3.61 7.43-8.37 8.5-10.57 1.28-2.64 1.94-6.1 1.95-10.16 0-5.25-0.45-6.8-3-10.4-1.92-2.72-4.98-5.25-8.5-7.03-3.02-1.54-8.2-3.3-11.5-3.91-3.3-0.61-12.3-1.29-20-1.52-8.26-0.23-18.3 0.14-24.5 0.92z"/>
		<path id="Path 6" class="s3" d="m973.5 197.36c-2.2 0.68-6.7 2.72-10 4.55-3.3 1.82-10.05 6.34-15 10.04-4.95 3.7-13.73 11.21-19.5 16.68-5.77 5.48-14.12 13.76-18.54 18.41-4.42 4.65-10.53 11.38-13.57 14.96-3.04 3.57-8.92 10.77-13.06 16-4.14 5.23-10.76 14-14.72 19.5-3.95 5.5-7.17 10.79-7.15 11.75 0.02 0.96 1.28 3.04 2.79 4.61 1.51 1.57 5.67 4.1 9.25 5.62 3.58 1.52 15.5 7.14 26.5 12.5 11 5.36 25.17 12.8 31.5 16.55 6.33 3.74 16.18 9.99 21.89 13.89 5.72 3.89 11.62 7.98 13.12 9.08 1.5 1.1 5.15 3.84 8.11 6.09 2.96 2.24 6.05 4.73 6.88 5.53 0.83 0.79 4.76 4.01 8.75 7.16 3.99 3.15 8.04 5.74 9 5.75 0.96 0.02 2.99-0.88 4.5-2 1.55-1.14 3.19-3.66 3.75-5.78 0.56-2.06 1.89-8.93 2.96-15.25 1.08-6.33 2.44-16 3.02-21.5 0.59-5.5 1.35-19.9 1.7-32 0.4-14.12 0.19-27.73-0.6-38-0.68-8.8-2.1-21.85-3.16-29-1.07-7.15-3.1-17.5-4.51-23-1.42-5.5-4.23-13.34-6.25-17.42-2.28-4.61-5.17-8.68-7.66-10.78-2.2-1.86-5.58-3.8-7.5-4.33-1.92-0.53-4.62-0.93-6-0.9-1.37 0.04-4.3 0.62-6.5 1.29zm-708 1.24c-1.65 0.9-4.28 2.82-5.85 4.27-1.56 1.45-4.37 5.67-6.25 9.38-1.87 3.71-4.48 10.46-5.79 15-1.32 4.54-3.32 14.1-4.46 21.25-1.13 7.15-2.53 18.17-3.1 24.5-0.57 6.32-1.04 22.3-1.05 35.5 0 13.2 0.46 28.95 1.01 35 0.56 6.05 1.71 15.95 2.57 22 0.86 6.05 2.46 14.6 3.57 19 1.16 4.65 2.91 8.95 4.18 10.28 1.19 1.25 3.3 2.26 4.67 2.25 1.38-0.01 3.63-0.77 5-1.7 1.38-0.93 4.98-3.78 8-6.34 3.02-2.55 10-8.04 15.5-12.19 5.5-4.15 15.63-11.37 22.5-16.03 6.88-4.67 18.13-11.79 25-15.84 6.88-4.04 22.96-12.43 35.75-18.64 16.22-7.87 23.59-11.97 24.36-13.54 0.61-1.24 0.85-3.38 0.53-4.75-0.32-1.38-5.61-9.25-11.76-17.5-6.15-8.25-11.46-15.23-11.81-15.5-0.34-0.27-2.19-2.51-4.1-4.96-1.91-2.45-5.24-6.5-7.39-9-2.16-2.5-12.75-13.32-23.53-24.04-12.28-12.21-23.15-22.03-29.08-26.26-5.21-3.72-12.4-8.2-15.97-9.95-4.85-2.39-8.15-3.28-13-3.51-4.61-0.22-7.37 0.17-9.5 1.32z"/>
		<path id="Path 7" class="s2" d="m710.35 883.5c0 4.95 0.17 7.2 0.38 5 0.21-2.2 0.21-6.25 0.01-9-0.21-2.75-0.38-0.95-0.39 4z"/>
		<path id="Path 8" class="s3" d="m621.4 848.75c-3.24 3.65-8.6 8.63-11.9 11.05-3.3 2.43-8.59 5.72-11.75 7.31-3.16 1.59-9.01 3.79-13 4.89-3.99 1.1-8.71 2-10.5 2-3.22 0-3.26 0.06-3.87 5.75-0.35 3.16-0.32 10.02 0.05 15.25 0.37 5.23 1.31 13.1 2.1 17.5 0.79 4.4 2.49 11.15 3.78 15 1.3 3.85 3.88 9.92 5.74 13.5 2.1 4.03 6.24 9.38 10.92 14.07 4.14 4.16 9.55 8.53 12.03 9.71 2.48 1.17 7.2 2.83 10.5 3.68 3.3 0.85 8.7 1.54 12 1.53 3.3-0.01 8.92-0.71 12.5-1.55 3.58-0.85 8.53-2.7 11-4.13 2.48-1.43 6.49-4.22 8.93-6.2 2.43-1.99 6.61-6.76 9.29-10.61 2.67-3.85 6.16-10.38 7.74-14.5 1.58-4.13 3.6-10.65 4.49-14.5 0.89-3.85 2.08-12.4 2.66-19 0.6-6.99 0.69-14.72 0.21-18.5-0.75-5.92-1.04-6.53-3.32-6.81-1.37-0.16-5.2-0.96-8.5-1.76-3.3-0.8-8.47-2.43-11.5-3.61-3.02-1.18-8.42-4.04-12-6.36-3.58-2.31-9.92-7.84-14.1-12.28l-7.6-8.07z"/>
	</g>
</svg>